M48
;GenerationSoftware,Autodesk,EAGLE,9.0.0*%
;CreationDate,2018-04-25T07:48:58Z*%
FMAT,2
ICI,OFF
METRIC,TZ,000.000
T1C1.016
%
G90
M71
T1
X13970Y6350
X16510Y6350
X19050Y6350
X21590Y6350
X24130Y6350
X26670Y6350
X29210Y6350
X31750Y6350
X34290Y6350
X36830Y6350
X39370Y6350
X41910Y6350
X44450Y6350
X46990Y6350
X49530Y6350
X52070Y6350
X54610Y6350
X57150Y6350
X59690Y6350
X62230Y6350
X13970Y44450
X16510Y44450
X19050Y44450
X21590Y44450
X24130Y44450
X26670Y44450
X29210Y44450
X31750Y44450
X34290Y44450
X36830Y44450
X39370Y44450
X41910Y44450
X44450Y44450
X46990Y44450
X49530Y44450
X52070Y44450
X54610Y44450
X57150Y44450
X59690Y44450
X62230Y44450
X13970Y24130
X13970Y26670
X16510Y24130
X16510Y26670
X19050Y24130
X19050Y26670
X21590Y24130
X21590Y26670
X24130Y24130
X24130Y26670
X26670Y24130
X26670Y26670
X29210Y24130
X29210Y26670
X31750Y24130
X31750Y26670
X34290Y24130
X34290Y26670
X36830Y24130
X36830Y26670
X39370Y24130
X39370Y26670
X41910Y24130
X41910Y26670
X44450Y24130
X44450Y26670
X46990Y24130
X46990Y26670
X49530Y24130
X49530Y26670
X52070Y24130
X52070Y26670
X54610Y24130
X54610Y26670
X57150Y24130
X57150Y26670
X59690Y24130
X59690Y26670
X62230Y24130
X62230Y26670
M30