G04 EAGLE Gerber X2 export*
%TF.Part,Single*%
%TF.FileFunction,Soldermask,Top,1*%
%TF.FilePolarity,Negative*%
%TF.GenerationSoftware,Autodesk,EAGLE,9.0.0*%
%TF.CreationDate,2018-04-25T07:48:58Z*%
G75*
%MOMM*%
%FSLAX34Y34*%
%LPD*%
%AMOC8*
5,1,8,0,0,1.08239X$1,22.5*%
G01*
%ADD10C,1.727200*%
%ADD11P,1.869504X8X22.500000*%


D10*
X139700Y55880D02*
X139700Y71120D01*
X165100Y71120D02*
X165100Y55880D01*
X190500Y55880D02*
X190500Y71120D01*
X215900Y71120D02*
X215900Y55880D01*
X241300Y55880D02*
X241300Y71120D01*
X266700Y71120D02*
X266700Y55880D01*
X292100Y55880D02*
X292100Y71120D01*
X317500Y71120D02*
X317500Y55880D01*
X342900Y55880D02*
X342900Y71120D01*
X368300Y71120D02*
X368300Y55880D01*
X393700Y55880D02*
X393700Y71120D01*
X419100Y71120D02*
X419100Y55880D01*
X444500Y55880D02*
X444500Y71120D01*
X469900Y71120D02*
X469900Y55880D01*
X495300Y55880D02*
X495300Y71120D01*
X520700Y71120D02*
X520700Y55880D01*
X546100Y55880D02*
X546100Y71120D01*
X571500Y71120D02*
X571500Y55880D01*
X596900Y55880D02*
X596900Y71120D01*
X622300Y71120D02*
X622300Y55880D01*
X139700Y436880D02*
X139700Y452120D01*
X165100Y452120D02*
X165100Y436880D01*
X190500Y436880D02*
X190500Y452120D01*
X215900Y452120D02*
X215900Y436880D01*
X241300Y436880D02*
X241300Y452120D01*
X266700Y452120D02*
X266700Y436880D01*
X292100Y436880D02*
X292100Y452120D01*
X317500Y452120D02*
X317500Y436880D01*
X342900Y436880D02*
X342900Y452120D01*
X368300Y452120D02*
X368300Y436880D01*
X393700Y436880D02*
X393700Y452120D01*
X419100Y452120D02*
X419100Y436880D01*
X444500Y436880D02*
X444500Y452120D01*
X469900Y452120D02*
X469900Y436880D01*
X495300Y436880D02*
X495300Y452120D01*
X520700Y452120D02*
X520700Y436880D01*
X546100Y436880D02*
X546100Y452120D01*
X571500Y452120D02*
X571500Y436880D01*
X596900Y436880D02*
X596900Y452120D01*
X622300Y452120D02*
X622300Y436880D01*
D11*
X139700Y241300D03*
X139700Y266700D03*
X165100Y241300D03*
X165100Y266700D03*
X190500Y241300D03*
X190500Y266700D03*
X215900Y241300D03*
X215900Y266700D03*
X241300Y241300D03*
X241300Y266700D03*
X266700Y241300D03*
X266700Y266700D03*
X292100Y241300D03*
X292100Y266700D03*
X317500Y241300D03*
X317500Y266700D03*
X342900Y241300D03*
X342900Y266700D03*
X368300Y241300D03*
X368300Y266700D03*
X393700Y241300D03*
X393700Y266700D03*
X419100Y241300D03*
X419100Y266700D03*
X444500Y241300D03*
X444500Y266700D03*
X469900Y241300D03*
X469900Y266700D03*
X495300Y241300D03*
X495300Y266700D03*
X520700Y241300D03*
X520700Y266700D03*
X546100Y241300D03*
X546100Y266700D03*
X571500Y241300D03*
X571500Y266700D03*
X596900Y241300D03*
X596900Y266700D03*
X622300Y241300D03*
X622300Y266700D03*
M02*
